# File created by Blade
# Date/Time:  Fri Jan 16 19:49:56 2015
# Frame Rate: 120.000 fps
#------------------------------------------------------
:FULLY-SPECIFIED
:DEGREES
713
root 19.329501 35.646451 -18.128963 -159.352343 -0.158818 -178.239435
Spine 13.417017 3.476942 0.954617
Head -13.325380 1.305546 2.745819
LeftShoulder -18.346652 -6.332836 6.856241
LeftArm -46.502375 10.280109 -102.336046
LeftForeArm 4.889426 -0.000000 1.150338
LeftHand -0.312532 -0.000000 -36.773542
LeftHandThumb1 -26.253704 0.000000 33.147579
RightShoulder -19.537789 -26.843942 2.286855
RightArm -8.564363 -25.216411 89.109591
RightForeArm -33.027254 -0.000000 10.462980
RightHand 2.755654 -0.000000 38.528802
RightHandThumb1 -24.326973 -0.000000 -32.862282
LeftUpLeg -16.053419 5.646992 3.568378
LeftLeg -7.743537 -0.000000 0.000000
LeftFoot -14.613777 26.315283 -12.146972
LeftToeBase 27.059990 -0.000000 -0.000000
RightUpLeg -16.449144 -0.940738 -4.431750
RightLeg -4.676274 -0.000000 0.000000
RightFoot -13.045784 -16.031517 18.593813
RightToeBase 23.881098 -0.000000 -0.000000
714
root 19.313639 35.651471 -18.234894 -159.697859 -0.072668 -178.149822
Spine 12.602215 3.572226 1.102590
Head -12.932599 1.275453 2.600468
LeftShoulder -18.281104 -6.498551 6.517010
LeftArm -46.203597 10.530386 -102.154558
LeftForeArm 4.136148 0.000000 1.197643
LeftHand -0.308026 0.000000 -36.291714
LeftHandThumb1 -26.253704 0.000000 33.147579
RightShoulder -19.428348 -26.615882 2.439082
RightArm -8.244523 -25.793644 88.899784
RightForeArm -32.599651 -0.000000 10.612341
RightHand 2.957434 -0.000000 37.871618
RightHandThumb1 -24.326973 -0.000000 -32.862282
LeftUpLeg -15.546063 5.739845 3.641014
LeftLeg -7.682744 -0.000000 0.000000
LeftFoot -14.846083 26.293324 -12.202705
LeftToeBase 27.078715 -0.000000 -0.000000
RightUpLeg -16.004371 -0.897394 -4.347192
RightLeg -4.599372 -0.000000 0.000000
RightFoot -13.100904 -16.114529 18.558796
RightToeBase 23.981039 -0.000000 -0.000000
715
root 19.300403 35.656879 -18.339848 -160.029075 -0.009365 -178.062900
Spine 11.747369 3.675797 1.252443
Head -12.424128 1.210723 2.476061
LeftShoulder -18.123357 -6.714155 6.193106
LeftArm -45.914835 10.690850 -101.905957
LeftForeArm 3.309400 0.000000 1.155468
LeftHand -0.231519 -0.000000 -35.796475
LeftHandThumb1 -26.253704 0.000000 33.147579
RightShoulder -19.330045 -26.465765 2.624024
RightArm -7.802921 -26.252889 88.601175
RightForeArm -32.370901 -0.000000 10.657157
RightHand 3.369157 0.000000 37.689236
RightHandThumb1 -24.326973 -0.000000 -32.862282
LeftUpLeg -15.039568 5.739556 3.744879
LeftLeg -7.655563 -0.000000 0.000000
LeftFoot -15.053319 26.363352 -12.269673
LeftToeBase 27.021228 -0.000000 -0.000000
RightUpLeg -15.571053 -0.833570 -4.257806
RightLeg -4.525067 -0.000000 0.000000
RightFoot -13.230853 -16.196876 18.657604
RightToeBase 24.091670 -0.000000 -0.000000
716
root 19.291405 35.660088 -18.443770 -160.413566 0.055089 -177.979161
Spine 10.973013 3.750091 1.359671
Head -11.919630 1.158363 2.439612
LeftShoulder -17.966832 -6.926264 5.907472
LeftArm -45.535177 10.675534 -101.427959
LeftForeArm 2.613827 -0.000000 1.117283
LeftHand -0.255548 -0.000000 -35.400362
LeftHandThumb1 -26.253704 0.000000 33.147579
RightShoulder -19.199868 -26.389604 2.901835
RightArm -7.270475 -26.977248 88.204203
RightForeArm -31.257412 0.000000 10.735706
RightHand 3.237208 -0.000000 36.935117
RightHandThumb1 -24.326973 -0.000000 -32.862282
LeftUpLeg -14.495849 5.804590 3.839467
LeftLeg -7.597620 -0.000000 0.000000
LeftFoot -15.245593 26.362300 -12.260188
LeftToeBase 27.012364 -0.000000 -0.000000
RightUpLeg -15.104744 -0.814634 -4.146697
RightLeg -4.408648 -0.000000 0.000000
RightFoot -13.243259 -16.283140 18.503610
RightToeBase 23.786901 -0.000000 -0.000000
717
root 19.283153 35.660630 -18.547959 -160.763898 0.165921 -177.905526
Spine 10.185739 3.875699 1.462180
Head -11.463208 1.060713 2.327469
LeftShoulder -17.849296 -7.075304 5.582263
LeftArm -45.117638 10.946195 -101.113573
LeftForeArm 1.946433 0.000000 1.171846
LeftHand -0.275236 -0.000000 -34.803529
LeftHandThumb1 -26.253704 0.000000 33.147579
RightShoulder -19.097971 -26.234875 3.156892
RightArm -6.737270 -27.154050 87.752563
RightForeArm -30.917586 -0.000000 10.629160
RightHand 3.397070 0.000000 35.963616
RightHandThumb1 -24.326973 -0.000000 -32.862282
LeftUpLeg -13.978017 5.905599 3.908128
LeftLeg -7.541437 -0.000000 0.000000
LeftFoot -15.473916 26.361275 -12.284130
LeftToeBase 27.063846 -0.000000 -0.000000
RightUpLeg -14.653517 -0.764830 -4.042279
RightLeg -4.348604 -0.000000 0.000000
RightFoot -13.310926 -16.475200 18.256360
RightToeBase 23.773625 -0.000000 -0.000000
718
root 19.276263 35.661596 -18.651686 -161.090962 0.246912 -177.830921
Spine 9.375653 3.972739 1.562503
Head -10.985307 1.016316 2.243461
LeftShoulder -17.705064 -7.365719 5.271478
LeftArm -44.802768 11.144535 -100.676765
LeftForeArm 1.470513 -0.000000 1.268935
LeftHand -0.446091 -0.000000 -34.429375
LeftHandThumb1 -26.253704 0.000000 33.147579
RightShoulder -18.901431 -25.916468 3.387847
RightArm -6.424573 -27.224244 87.262567
RightForeArm -30.183124 -0.000000 10.683353
RightHand 3.295790 -0.000000 35.263997
RightHandThumb1 -24.326973 -0.000000 -32.862282
LeftUpLeg -13.475647 5.929791 4.001161
LeftLeg -7.510365 -0.000000 0.000000
LeftFoot -15.683494 26.422399 -12.331366
LeftToeBase 27.004904 -0.000000 -0.000000
RightUpLeg -14.245855 -0.745211 -3.928166
RightLeg -4.243123 -0.000000 0.000000
RightFoot -13.394230 -16.580534 18.182483
RightToeBase 23.589325 -0.000000 -0.000000
719
root 19.269609 35.661397 -18.751917 -161.422460 0.341220 -177.754785
Spine 8.581241 4.062146 1.671522
Head -10.483471 0.941590 2.137214
LeftShoulder -17.539714 -7.633485 4.917833
LeftArm -44.410276 11.354675 -100.197369
LeftForeArm 0.975252 -0.000000 1.298455
LeftHand -0.483558 -0.000000 -34.009769
LeftHandThumb1 -26.253704 0.000000 33.147579
RightShoulder -18.686679 -25.655400 3.614314
RightArm -6.051590 -27.313496 86.739619
RightForeArm -29.894348 -0.000000 10.803103
RightHand 3.506256 0.000000 34.420607
RightHandThumb1 -24.326973 -0.000000 -32.862282
LeftUpLeg -12.992981 5.988375 4.090693
LeftLeg -7.432946 -0.000000 0.000000
LeftFoot -15.914019 26.433374 -12.340620
LeftToeBase 26.995684 -0.000000 -0.000000
RightUpLeg -13.841628 -0.727435 -3.801861
RightLeg -4.142838 -0.000000 0.000000
RightFoot -13.556111 -16.760030 17.975532
RightToeBase 24.204218 -0.000000 -0.000000
720
root 19.267003 35.660385 -18.852385 -161.753829 0.467351 -177.686885
Spine 7.796257 4.233884 1.732378
Head -9.948025 0.878823 2.096678
LeftShoulder -17.315256 -8.022494 4.597863
LeftArm -44.102058 11.558240 -99.685236
LeftForeArm 0.644624 -0.000000 1.336556
LeftHand -0.554930 -0.000000 -33.538714
LeftHandThumb1 -26.253704 0.000000 33.147579
RightShoulder -18.462478 -25.307407 3.868105
RightArm -5.804273 -27.324892 86.214395
RightForeArm -29.763134 -0.000000 11.053655
RightHand 3.441021 -0.000000 33.487988
RightHandThumb1 -24.326973 -0.000000 -32.862282
LeftUpLeg -12.480780 6.021624 4.180747
LeftLeg -7.403811 -0.000000 0.000000
LeftFoot -16.126368 26.525025 -12.374371
LeftToeBase 27.028449 -0.000000 -0.000000
RightUpLeg -13.440872 -0.609308 -3.702488
RightLeg -4.054176 -0.000000 0.000000
RightFoot -13.668316 -17.023810 17.925737
RightToeBase 23.564114 -0.000000 -0.000000
721
root 19.266130 35.657548 -18.952769 -162.106890 0.529309 -177.643564
Spine 7.030785 4.221186 1.790903
Head -9.406306 0.879280 2.016144
LeftShoulder -17.144420 -8.434102 4.273697
LeftArm -43.765877 11.738848 -99.121676
LeftForeArm 0.346463 -0.000000 1.303465
LeftHand -0.414936 -0.000000 -32.941539
LeftHandThumb1 -26.253704 0.000000 33.147579
RightShoulder -18.083840 -24.975263 4.057826
RightArm -5.527341 -27.465778 85.712836
RightForeArm -29.904711 -0.000000 11.338070
RightHand 3.516775 -0.000000 32.367926
RightHandThumb1 -24.326973 -0.000000 -32.862282
LeftUpLeg -11.989025 6.020718 4.263216
LeftLeg -7.325196 -0.000000 0.000000
LeftFoot -16.334463 26.583263 -12.386031
LeftToeBase 27.028766 -0.000000 -0.000000
RightUpLeg -12.998775 -0.600055 -3.593662
RightLeg -3.974519 -0.000000 0.000000
RightFoot -13.789860 -17.243944 17.787535
RightToeBase 23.286883 -0.000000 -0.000000
722
root 19.265371 35.653766 -19.049551 -162.452673 0.664615 -177.593735
Spine 6.274429 4.295396 1.832745
Head -8.879796 0.875628 1.941582
LeftShoulder -16.958454 -8.767160 3.911129
LeftArm -43.255557 11.959009 -98.452223
LeftForeArm 0.215751 -0.000000 1.229256
LeftHand -0.649371 0.000000 -32.485770
LeftHandThumb1 -26.253704 0.000000 33.147579
RightShoulder -17.746262 -24.689327 4.308930
RightArm -5.125605 -27.621584 85.059212
RightForeArm -29.901300 0.000000 11.514102
RightHand 3.810252 0.000000 31.277461
RightHandThumb1 -24.326973 -0.000000 -32.862282
LeftUpLeg -11.474532 5.997459 4.354792
LeftLeg -7.280852 -0.000000 0.000000
LeftFoot -16.555630 26.730664 -12.420411
LeftToeBase 26.973845 -0.000000 -0.000000
RightUpLeg -12.590239 -0.493607 -3.500449
RightLeg -3.887442 -0.000000 0.000000
RightFoot -13.991212 -17.563323 17.783926
RightToeBase 23.149960 -0.000000 -0.000000
723
root 19.267703 35.650295 -19.144594 -162.824538 0.740318 -177.553944
Spine 5.552393 4.313147 1.902567
Head -8.318183 0.843763 1.817891
LeftShoulder -16.705536 -9.122032 3.522382
LeftArm -42.713960 12.248678 -97.830526
LeftForeArm 0.030198 0.000000 1.103116
LeftHand -0.813044 -0.000000 -32.067177
LeftHandThumb1 -26.253704 0.000000 33.147579
RightShoulder -17.327077 -24.334459 4.492538
RightArm -4.799392 -27.737041 84.469929
RightForeArm -29.984306 0.000000 11.731860
RightHand 3.819564 -0.000000 30.028870
RightHandThumb1 -24.326973 -0.000000 -32.862282
LeftUpLeg -10.986704 5.978701 4.439078
LeftLeg -7.173374 -0.000000 0.000000
LeftFoot -16.772220 26.848228 -12.397638
LeftToeBase 27.008104 -0.000000 -0.000000
RightUpLeg -12.120807 -0.469137 -3.390264
RightLeg -3.846519 -0.000000 0.000000
RightFoot -14.115494 -17.909764 17.491340
RightToeBase 23.171891 -0.000000 -0.000000
